<svg width="40" height="40" viewBox="0 0 40 40" fill="none" xmlns="http://www.w3.org/2000/svg">
<path d="M2.19336 2.19332C2.1331 2.25706 2.08558 2.33173 2.05336 2.41332C2.01817 2.49314 2 2.57942 2 2.66665C2 2.75388 2.01817 2.84016 2.05336 2.91998C2.08396 3.00238 2.13168 3.07736 2.19336 3.13998C2.31974 3.26392 2.48968 3.33335 2.66669 3.33335C2.8437 3.33335 3.01365 3.26392 3.14002 3.13998C3.26396 3.01361 3.33339 2.84366 3.33339 2.66665C3.33339 2.48964 3.26396 2.3197 3.14002 2.19332C3.0111 2.07436 2.84211 2.00831 2.66669 2.00831C2.49127 2.00831 2.32229 2.07436 2.19336 2.19332Z" fill="#FF6185"/>
<path d="M4.41337 2.05332C4.33097 2.08392 4.25599 2.13163 4.19337 2.19332C4.06943 2.3197 4 2.48964 4 2.66665C4 2.84366 4.06943 3.01361 4.19337 3.13998C4.28662 3.234 4.40575 3.29812 4.53558 3.32417C4.66541 3.35021 4.80006 3.337 4.92235 3.28623C5.04465 3.23545 5.14905 3.1494 5.22225 3.03906C5.29545 2.92871 5.33413 2.79907 5.33336 2.66665C5.33077 2.49017 5.26174 2.32115 5.14003 2.19332C5.04549 2.10209 4.92649 2.04029 4.79748 2.01544C4.66848 1.99058 4.53503 2.00374 4.41337 2.05332Z" fill="#FF6185"/>
<path d="M6.41337 2.05332C6.33178 2.08554 6.25711 2.13306 6.19337 2.19332C6.06943 2.3197 6 2.48964 6 2.66665C6 2.84366 6.06943 3.01361 6.19337 3.13998C6.25821 3.19882 6.33261 3.24616 6.41337 3.27998C6.49352 3.31414 6.57958 3.33226 6.6667 3.33331C6.75449 3.3342 6.84159 3.31757 6.92287 3.28438C7.00416 3.25119 7.078 3.20212 7.14009 3.14004C7.20217 3.07795 7.25124 3.00411 7.28443 2.92282C7.31762 2.84154 7.33425 2.75445 7.33336 2.66665C7.33077 2.49017 7.26174 2.32115 7.14003 2.19332C7.04462 2.10353 6.92566 2.04269 6.79701 2.0179C6.66836 1.99312 6.53531 2.0054 6.41337 2.05332Z" fill="#FF6185"/>
<path d="M17.9998 11.3333H8.6665V12.6666H17.9998V11.3333Z" fill="#FF6185"/>
<path d="M17.9998 15.3332H8.6665V16.6666H17.9998V15.3332Z" fill="#FF6185"/>
<path d="M21.3331 19.3332H8.6665V20.6665H21.3331V19.3332Z" fill="#FF6185"/>
<path d="M17.3331 23.3332H8.6665V24.6665H17.3331V23.3332Z" fill="#FF6185"/>
<path d="M13.9998 27.3332H8.6665V28.6665H13.9998V27.3332Z" fill="#FF6185"/>
<path d="M12.6665 31.3331H8.6665V32.6665H12.6665V31.3331Z" fill="#FF6185"/>
<path d="M37.4471 7.99995C37.1117 7.99898 36.7795 8.06459 36.4698 8.193C36.16 8.3214 35.8788 8.51003 35.6424 8.74794L33.3331 11.0573V1.99999C33.3331 1.46956 33.1224 0.960853 32.7473 0.585783C32.3723 0.210712 31.8636 0 31.3331 0H1.99999C1.46956 0 0.960853 0.210712 0.585783 0.585783C0.210712 0.960853 0 1.46956 0 1.99999V37.9997C0 38.5302 0.210712 39.0389 0.585783 39.414C0.960853 39.789 1.46956 39.9997 1.99999 39.9997H31.3331C31.8636 39.9997 32.3723 39.789 32.7473 39.414C33.1224 39.0389 33.3331 38.5302 33.3331 37.9997V18.2759L39.2517 12.3573C39.6089 12.0004 39.8522 11.5456 39.9508 11.0504C40.0495 10.5552 39.999 10.0419 39.8058 9.57542C39.6126 9.10894 39.2853 8.71025 38.8655 8.4298C38.4456 8.14936 37.952 7.99976 37.4471 7.99995ZM1.33332 1.99999C1.33332 1.82318 1.40356 1.65361 1.52859 1.52859C1.65361 1.40356 1.82318 1.33332 1.99999 1.33332H31.3331C31.5099 1.33332 31.6795 1.40356 31.8045 1.52859C31.9296 1.65361 31.9998 1.82318 31.9998 1.99999V3.99997H1.33332V1.99999ZM31.9998 37.9997C31.9998 38.1766 31.9296 38.3461 31.8045 38.4712C31.6795 38.5962 31.5099 38.6664 31.3331 38.6664H1.99999C1.82318 38.6664 1.65361 38.5962 1.52859 38.4712C1.40356 38.3461 1.33332 38.1766 1.33332 37.9997V5.3333H31.9998V12.3906L27.9998 16.3906V14.3906L20.9425 7.33328H5.3333V36.6664H27.9998V23.6092L31.9998 19.6092V37.9997ZM16.0839 28.3065L14.2792 33.7204L19.6932 31.9158L21.6092 29.9998L26.6665 24.9425V35.3331H6.66662V8.66661H19.9999V15.3332H26.6665V17.7239L17.9999 26.3905L16.0839 28.3065ZM17.9999 28.2758L19.7239 29.9998L18.9732 30.7505L16.3872 31.6125L17.2492 29.0265L17.9999 28.2758ZM21.3332 9.60927L25.7238 13.9999H21.3332V9.60927ZM20.6665 29.0571L18.9425 27.3332L34.6664 11.6093L36.3904 13.3332L20.6665 29.0571ZM38.3091 11.4146L37.3331 12.3906L35.6091 10.6666L36.5851 9.6906C36.6974 9.57338 36.832 9.47976 36.9809 9.41523C37.1299 9.35071 37.2902 9.31657 37.4525 9.31483C37.6148 9.31308 37.7759 9.34377 37.9262 9.40508C38.0765 9.46639 38.213 9.5571 38.3278 9.67189C38.4426 9.78667 38.5333 9.92322 38.5946 10.0735C38.6559 10.2238 38.6866 10.3849 38.6849 10.5472C38.6831 10.7095 38.649 10.8698 38.5844 11.0188C38.5199 11.1677 38.4263 11.3023 38.3091 11.4146Z" fill="#FF6185"/>
</svg>
