<svg width="38" height="38" viewBox="0 0 38 38" fill="none" xmlns="http://www.w3.org/2000/svg">
<g clip-path="url(#clip0)">
<path d="M33.913 18.8407C33.913 27.165 27.1649 33.9131 18.8405 33.9131C10.5162 33.9131 3.76807 27.165 3.76807 18.8407C3.76807 10.5163 10.5162 3.76819 18.8405 3.76819C27.1649 3.76819 33.913 10.5163 33.913 18.8407Z" fill="#FF6185" fill-opacity="0.37"/>
<path d="M18.8406 37.6812C8.43533 37.6812 0 29.2458 0 18.8406C0 8.43533 8.43533 0 18.8406 0C29.2458 0 37.6812 8.43533 37.6812 18.8406C37.6695 29.2409 29.2409 37.6695 18.8406 37.6812ZM18.8406 1.25604C9.12897 1.25604 1.25604 9.12897 1.25604 18.8406C1.25604 28.5522 9.12897 36.4251 18.8406 36.4251C28.5522 36.4251 36.4251 28.5522 36.4251 18.8406C36.4141 9.13357 28.5476 1.26708 18.8406 1.25604Z" fill="#FF6185"/>
<path d="M10.0483 11.9324H27.6328V25.7488H10.0483V11.9324Z" fill="#E2407A"/>
<path d="M10.0483 11.9324L18.8405 19.4686L27.6328 11.9324H10.0483Z" fill="#FF6185"/>
</g>
<defs>
<clipPath id="clip0">
<rect width="37.6812" height="37.6812" fill="white"/>
</clipPath>
</defs>
</svg>
