<svg width="36" height="36" viewBox="0 0 36 36" fill="none" xmlns="http://www.w3.org/2000/svg">
<path d="M17.7036 16.755C19.7178 16.7532 21.3489 15.1187 21.3469 13.1046C21.3451 11.0906 19.7106 9.45932 17.6963 9.46131C15.6825 9.46329 14.0512 11.0976 14.0532 13.1117C14.0596 15.124 15.6913 16.7523 17.7036 16.755ZM17.7036 10.8734C18.9396 10.8734 19.9418 11.8754 19.9418 13.1117C19.9418 14.3477 18.9396 15.3499 17.7036 15.3499C16.4673 15.3499 15.4654 14.3477 15.4654 13.1117C15.4656 11.8756 16.4677 10.8737 17.7036 10.8734Z" fill="#8A8C90"/>
<path d="M12.8032 24.6135H22.6032C22.9931 24.6126 23.3082 24.2971 23.3093 23.9074C23.3093 22.3117 22.7305 20.8431 21.6714 19.7628C20.6238 18.7011 19.1947 18.1036 17.7033 18.1036C16.212 18.1036 14.7829 18.7011 13.7352 19.7628C12.6761 20.8431 12.0972 22.3117 12.0972 23.9074C12.0983 24.2971 12.4136 24.6126 12.8032 24.6135ZM14.7449 20.7513C15.5265 19.9607 16.5917 19.5157 17.7033 19.5157C18.8147 19.5157 19.8802 19.9607 20.6616 20.7513C21.3096 21.4199 21.7255 22.2786 21.848 23.2014H13.5587C13.6796 22.2782 14.0958 21.4185 14.7449 20.7513Z" fill="#8A8C90"/>
<path d="M26.8822 3.53033H20.5276V1.83577C20.5265 1.44633 20.211 1.1308 19.8215 1.1297H15.5851C15.1957 1.1308 14.8802 1.44633 14.8791 1.83577V3.53033H8.52448C6.57507 3.53121 4.99502 5.11125 4.99414 7.06066V31.3493C4.99502 33.2988 6.57507 34.8788 8.52448 34.8797H26.8822C28.8316 34.8788 30.4117 33.2988 30.4126 31.3493V7.06066C30.4117 5.11125 28.8316 3.53121 26.8822 3.53033ZM16.2912 2.54183H19.1155V5.3661H16.2912V2.54183ZM29.0004 31.3493C28.9971 32.5177 28.0505 33.4642 26.8822 33.4675H8.52448C7.35616 33.4642 6.40958 32.5177 6.40627 31.3493V7.06066C6.40958 5.89234 7.35616 4.94577 8.52448 4.94246H14.8791V6.07217C14.8802 6.4616 15.1957 6.77713 15.5851 6.77823H19.8215C20.211 6.77713 20.5265 6.4616 20.5276 6.07217V4.94246H26.8822C28.0505 4.94577 28.9971 5.89234 29.0004 7.06066V31.3493Z" fill="#8A8C90"/>
<path d="M25.3433 29.6548H10.064C9.6741 29.6548 9.35791 29.9708 9.35791 30.3609C9.35791 30.751 9.6741 31.0669 10.064 31.0669H25.3503C25.7404 31.0649 26.0548 30.7472 26.0528 30.3573C26.0509 29.9673 25.7331 29.6528 25.3433 29.6548Z" fill="#8A8C90"/>
<path d="M13.5942 26.5481C13.2044 26.5481 12.8882 26.8641 12.8882 27.2542C12.8882 27.6443 13.2044 27.9603 13.5942 27.9603H21.8199C22.21 27.9603 22.526 27.6443 22.526 27.2542C22.526 26.8641 22.21 26.5481 21.8199 26.5481H13.5942Z" fill="#8A8C90"/>
</svg>
