<svg width="58" height="58" viewBox="0 0 58 58" fill="none" xmlns="http://www.w3.org/2000/svg">
<path d="M29 58C45.0163 58 58 45.0163 58 29C58 12.9837 45.0163 0 29 0C12.9837 0 0 12.9837 0 29C0 45.0163 12.9837 58 29 58Z" fill="#CCD9EF"/>
<path d="M17.777 55.32L17.817 55.338L19.192 46.018L17.777 55.32Z" fill="#CCD9EF"/>
<path opacity="0.1" d="M29.103 0.0480003C20.807 0.0480003 13.335 3.562 8.08105 9.176H17.815C18.567 9.176 19.183 9.792 19.183 10.544V18.908C19.217 18.93 19.253 18.945 19.283 18.975L20.526 20.018C20.743 20.235 20.743 20.586 20.526 20.803L19.283 21.846C19.253 21.876 19.217 21.892 19.183 21.913V30.278C19.183 31.03 18.567 31.645 17.815 31.645H1.67605C1.06005 31.645 0.542047 31.229 0.373047 30.666C0.996047 40.624 6.67705 49.204 14.88 53.874L16.387 44.973L17.94 37.11L18.029 36.663C18.029 36.663 18.973 33.437 23.749 30.686C25.537 29.656 26.748 28.945 27.519 28.486C27.899 27.61 28.514 26.627 29.513 25.83C29.821 25.584 30.158 25.378 30.509 25.192L30.574 25.78C30.326 25.924 30.085 26.08 29.861 26.258C29.229 26.761 28.765 27.355 28.421 27.943L28.643 27.806L30.648 26.44L30.358 23.84C30.341 23.83 27.572 24.319 26.686 22.475C25.91 20.858 25.65 13.228 25.591 10.873C24.811 10.113 24.117 9.107 23.849 8.162C23.577 7.2 23.391 5.687 24.232 5.146C24.855 4.746 26.188 5.238 26.992 5.581C25.69 4.939 25.456 3.387 30.272 4.253C31.412 4.458 32.568 4.543 33.664 4.92C35.654 5.605 37.731 6.594 38.697 8.463C39.666 10.335 39.272 12.59 38.855 14.656C38.672 15.56 38.477 15.484 38.445 16.585C38.621 18.09 38.455 19.773 38.583 21.123L38.526 21.107C38.835 23.756 39.26 26.097 39.321 26.403H39.323C39.332 26.449 39.33 26.447 39.323 26.406C39.321 26.41 39.313 26.429 39.301 26.463L39.428 26.508C39.391 26.472 39.359 26.433 39.321 26.398C39.304 26.315 39.249 26.018 39.173 25.578C39.705 25.949 40.129 26.393 40.471 26.891C41.206 27.171 41.917 27.467 42.556 27.772C42.556 27.772 50.22 30.515 50.988 34.272C51.329 35.94 51.469 41.502 49.077 46.429C49.077 46.429 48.665 48.197 48.082 50.486C54.096 45.209 57.897 37.472 57.897 28.842C57.897 12.94 45.0051 0.0480003 29.103 0.0480003Z" fill="#CCD9EF"/>
<path d="M50.988 34.273C50.22 30.515 42.556 27.773 42.556 27.773C41.916 27.467 41.206 27.171 40.471 26.891C42.008 29.126 41.83 32.466 41.666 35.355C41.588 36.75 41.516 38.085 41.636 39.17C41.711 39.17 41.786 39.17 41.862 39.18C42.61 39.292 43.127 39.989 43.016 40.737C42.906 41.485 42.209 42.002 41.46 41.891C40.712 41.781 40.195 41.084 40.306 40.335C40.376 39.858 40.686 39.477 41.096 39.291C40.961 38.145 41.034 36.765 41.116 35.324C41.299 32.073 41.492 28.511 39.428 26.508L39.301 26.463C39.06 27.091 36.801 32.682 31.246 36.706C31.246 36.706 29.756 29.515 30.759 27.435L30.649 26.44L28.643 27.806L28.42 27.943C27.758 29.073 27.546 30.178 27.488 30.585C28.761 31.426 27.58 34.625 27.433 35.005C26.506 37.78 25.518 39.75 24.485 40.89L24.492 40.913H27.295L27.151 41.876H24.931C24.96 41.913 24.988 41.953 25.015 41.983C25.245 42.239 25.492 42.346 25.679 42.391C25.797 42.251 25.976 42.167 26.17 42.196C26.469 42.24 26.675 42.518 26.63 42.816C26.586 43.115 26.308 43.321 26.01 43.276C25.81 43.246 25.66 43.108 25.59 42.932C25.307 42.872 24.943 42.726 24.606 42.352C24.48 42.214 24.37 42.054 24.272 41.876H23.18C23.08 41.918 22.98 41.953 22.88 41.981C22.43 42.104 22.06 42.051 21.793 41.961C21.687 42.028 21.559 42.064 21.424 42.045C21.126 42 20.92 41.723 20.964 41.425C21.009 41.125 21.286 40.92 21.584 40.965C21.798 40.995 21.96 41.149 22.021 41.342L22.085 40.912H23.652C23.723 40.852 23.794 40.793 23.87 40.719C23.572 39.196 23.793 36.951 24.534 34.01C24.611 33.712 25.317 31.096 26.45 30.52C26.615 30.437 26.785 30.403 26.954 30.409C27.014 30.021 27.164 29.302 27.518 28.485C26.747 28.945 25.536 29.657 23.748 30.686C18.972 33.437 18.028 36.663 18.028 36.663L17.939 37.11C18.614 38.255 19.333 39.372 20.074 40.476L19.191 46.019L17.817 55.339C19.485 56.049 21.235 56.605 23.047 56.993C24.417 56.513 34.072 53.115 35.164 52.391C37.164 51.066 43.706 40.243 43.706 40.243L39.291 54.923L23.149 57.017C25.07 57.42 27.061 57.637 29.102 57.637C36.375 57.637 43.013 54.934 48.082 50.487C48.664 48.197 49.076 46.429 49.076 46.429C51.468 41.503 51.328 35.939 50.987 34.273H50.988Z" fill="white"/>
<path d="M27.09 30.987C27.055 30.973 27.02 30.964 26.985 30.958C26.892 30.945 26.799 30.962 26.701 31.013C25.927 31.405 25.261 33.408 25.07 34.147C24.33 37.083 24.215 38.966 24.355 40.17C25.104 39.215 25.99 37.585 26.915 34.817C27.255 33.931 28.01 31.353 27.091 30.987H27.09Z" fill="white"/>
<path d="M20.075 40.476C19.334 39.372 18.615 38.255 17.94 37.11L16.387 44.973L14.88 53.874C15.815 54.407 16.78 54.893 17.777 55.32L19.192 46.019L20.075 40.476Z" fill="#ECF0F9"/>
<path d="M39.3231 26.403H39.321H39.322H39.3231ZM35.021 28.444C33.969 28.944 32.774 28.867 31.806 28.323L31.801 28.329C31.784 28.319 31.769 28.304 31.751 28.294C31.61 28.211 31.476 28.114 31.345 28.011C31.304 27.978 31.259 27.95 31.219 27.914C31.054 27.77 30.899 27.613 30.759 27.435C29.756 29.515 31.246 36.706 31.246 36.706C36.8 32.682 39.06 27.091 39.301 26.463L39.322 26.406V26.403L35.022 28.444H35.021Z" fill="#DE1B50"/>
<path d="M30.363 23.884C30.503 23.868 30.653 23.842 30.816 23.814C31.715 23.658 32.576 23.401 33.438 23.106L36.945 21.904C36.419 22.767 35.738 23.55 35.088 24.307C33.991 25.586 32.957 26.914 31.892 28.219L31.806 28.323C32.774 28.867 33.969 28.943 35.021 28.444L39.321 26.404V26.403C39.261 26.096 38.835 23.756 38.526 21.107C37.622 20.852 36.636 20.514 36.209 19.683C36.015 19.307 35.963 18.867 35.743 18.506C35.302 17.783 34.316 17.559 33.827 16.867C33.071 15.796 33.869 14.286 33.546 13.015C33.489 12.794 33.387 12.567 33.192 12.448C33.018 12.341 32.802 12.338 32.598 12.338L30.301 12.341C28.941 12.342 27.481 12.314 26.37 11.528C26.109 11.343 25.845 11.12 25.59 10.873C25.65 13.228 25.91 20.858 26.686 22.475C27.572 24.319 30.341 23.83 30.358 23.841L30.648 26.44L30.759 27.435L30.363 23.884ZM39.322 26.406C39.33 26.446 39.332 26.449 39.323 26.403H39.322V26.406ZM31.752 28.294C31.61 28.211 31.476 28.114 31.345 28.011C31.475 28.115 31.61 28.211 31.752 28.294Z" fill="#FABCA3"/>
<path d="M31.219 27.914C31.054 27.771 30.899 27.613 30.759 27.435C30.899 27.613 31.054 27.77 31.219 27.915V27.914Z" fill="#FABCA3"/>
<path d="M31.345 28.01C31.475 28.114 31.61 28.211 31.752 28.294C31.769 28.304 31.784 28.319 31.802 28.329L31.806 28.323L31.892 28.219C32.957 26.914 33.992 25.586 35.088 24.307C35.738 23.55 36.419 22.767 36.945 21.904L33.438 23.106C32.576 23.401 31.715 23.658 30.816 23.813C30.653 23.842 30.503 23.868 30.363 23.883L30.759 27.435C30.899 27.613 31.054 27.771 31.219 27.915C31.259 27.95 31.304 27.978 31.345 28.011V28.01Z" fill="#F69679"/>
<path d="M30.301 12.34C31.067 12.34 31.832 12.34 32.598 12.338C32.802 12.338 33.018 12.341 33.192 12.448C33.387 12.568 33.489 12.794 33.546 13.015C33.869 14.286 33.071 15.796 33.827 16.867C34.316 17.559 35.302 17.783 35.743 18.506C35.963 18.866 36.015 19.306 36.209 19.683C36.636 20.514 37.622 20.853 38.526 21.107L38.583 21.123C38.455 19.773 38.621 18.09 38.444 16.585C38.477 15.484 38.672 15.56 38.854 14.655C39.272 12.59 39.666 10.335 38.697 8.463C37.731 6.594 35.653 5.605 33.664 4.92C32.568 4.543 31.412 4.458 30.272 4.253C25.456 3.387 25.69 4.939 26.992 5.581C26.188 5.238 24.855 4.745 24.232 5.146C23.392 5.686 23.577 7.2 23.849 8.162C24.117 9.107 24.81 10.112 25.591 10.872C25.845 11.12 26.109 11.342 26.37 11.528C27.48 12.314 28.94 12.342 30.301 12.341V12.34Z" fill="#1F2B7B"/>
<path d="M39.292 54.923L43.707 40.243C43.707 40.243 37.166 51.066 35.165 52.391C34.073 53.115 24.418 56.513 23.048 56.993C23.083 57 23.116 57.009 23.15 57.017L39.292 54.923ZM22.752 41.444C22.988 41.377 23.296 41.22 23.652 40.913H22.086L22.022 41.342C22.034 41.379 22.036 41.419 22.039 41.459C22.219 41.507 22.458 41.529 22.752 41.444ZM27.151 41.876L27.295 40.913H24.492C24.612 41.368 24.774 41.671 24.932 41.876H27.151ZM23.18 41.876H24.272C24.181 41.711 24.1 41.531 24.032 41.333C23.752 41.574 23.468 41.755 23.181 41.876H23.18Z" fill="#ECF0F9"/>
<path d="M41.116 35.324C41.034 36.765 40.961 38.144 41.096 39.291C41.263 39.215 41.446 39.174 41.636 39.171C41.516 38.086 41.588 36.751 41.666 35.355C41.83 32.466 42.008 29.126 40.471 26.891C40.129 26.393 39.705 25.949 39.173 25.578C39.249 26.018 39.304 26.315 39.321 26.398C39.359 26.433 39.391 26.472 39.428 26.508C41.492 28.511 41.299 32.073 41.116 35.324ZM26.45 30.52C25.318 31.096 24.612 33.712 24.535 34.01C23.795 36.951 23.573 39.196 23.871 40.719C23.795 40.793 23.724 40.851 23.653 40.913C23.296 41.22 22.988 41.377 22.753 41.444C22.458 41.529 22.218 41.507 22.039 41.459C22.043 41.501 22.052 41.541 22.046 41.584C22.021 41.748 21.924 41.878 21.794 41.96C22.061 42.05 22.43 42.104 22.881 41.98C22.981 41.953 23.081 41.918 23.181 41.876C23.468 41.756 23.751 41.574 24.032 41.333C24.1 41.531 24.181 41.711 24.272 41.876C24.37 42.054 24.48 42.214 24.606 42.353C24.943 42.726 25.307 42.873 25.59 42.933C25.556 42.846 25.535 42.754 25.55 42.656C25.565 42.552 25.616 42.466 25.68 42.391C25.492 42.346 25.246 42.239 25.015 41.983C24.988 41.953 24.96 41.913 24.931 41.876C24.774 41.671 24.612 41.368 24.492 40.913L24.485 40.89C25.518 39.75 26.506 37.78 27.433 35.004C27.58 34.625 28.761 31.426 27.488 30.584C27.546 30.178 27.758 29.074 28.42 27.943C28.765 27.355 29.229 26.761 29.861 26.258C30.085 26.08 30.326 25.924 30.574 25.78L30.509 25.192C30.158 25.378 29.821 25.584 29.513 25.83C28.514 26.627 27.899 27.61 27.519 28.485C27.164 29.302 27.015 30.021 26.955 30.409C26.785 30.403 26.615 30.437 26.451 30.521L26.45 30.52ZM26.914 34.817C25.99 37.585 25.104 39.215 24.354 40.17C24.215 38.966 24.33 37.083 25.07 34.147C25.261 33.408 25.927 31.405 26.7 31.013C26.8 30.963 26.892 30.945 26.985 30.958C27.02 30.964 27.055 30.973 27.091 30.988C28.011 31.353 27.255 33.931 26.914 34.818V34.817Z" fill="#586BB2"/>
<path d="M22.046 41.584C22.052 41.541 22.043 41.501 22.039 41.459C22.036 41.419 22.034 41.379 22.022 41.342C21.961 41.149 21.799 40.996 21.586 40.964C21.287 40.92 21.01 41.126 20.966 41.424C20.921 41.723 21.127 42 21.426 42.044C21.56 42.064 21.688 42.028 21.794 41.96C21.924 41.878 22.021 41.748 22.046 41.584ZM41.096 39.29C40.686 39.477 40.376 39.858 40.306 40.335C40.195 41.084 40.712 41.78 41.46 41.891C42.209 42.002 42.905 41.485 43.016 40.737C43.127 39.989 42.61 39.292 41.862 39.181C41.786 39.17 41.711 39.169 41.637 39.171C41.446 39.174 41.263 39.215 41.096 39.291V39.29ZM41.766 39.827C42.158 39.885 42.428 40.25 42.37 40.641C42.312 41.033 41.948 41.303 41.556 41.245C41.164 41.187 40.894 40.823 40.952 40.431C41.01 40.039 41.375 39.769 41.766 39.827ZM25.59 42.932C25.66 43.108 25.81 43.247 26.01 43.276C26.308 43.321 26.586 43.115 26.63 42.816C26.675 42.518 26.469 42.24 26.17 42.196C25.976 42.167 25.797 42.251 25.68 42.391C25.616 42.466 25.565 42.551 25.55 42.656C25.535 42.754 25.556 42.846 25.59 42.932Z" fill="#1F2B7B"/>
<path d="M40.9521 40.43C40.8941 40.823 41.1641 41.187 41.5561 41.245C41.9481 41.303 42.3121 41.033 42.3701 40.641C42.4281 40.25 42.1581 39.885 41.7661 39.827C41.3751 39.769 41.0101 40.039 40.9521 40.431V40.43Z" fill="#F1F1F2"/>
<path d="M1.67602 31.645H17.816C18.567 31.645 19.183 31.03 19.183 30.278V21.913C19.217 21.892 19.253 21.876 19.283 21.846L20.526 20.803C20.743 20.586 20.743 20.235 20.526 20.018L19.283 18.975C19.253 18.945 19.217 18.93 19.183 18.908V10.544C19.183 9.792 18.567 9.176 17.815 9.176H1.67602C0.924021 9.176 0.309021 9.792 0.309021 10.544V30.278C0.309021 30.413 0.335021 30.542 0.373021 30.666C0.542021 31.229 1.06002 31.645 1.67602 31.645ZM10.351 25.885C10.351 26.021 10.239 26.133 10.103 26.133H4.46502C4.32802 26.133 4.21702 26.021 4.21702 25.885V25.225C4.21702 25.088 4.32802 24.976 4.46502 24.976H10.103C10.239 24.976 10.351 25.088 10.351 25.224V25.885ZM15.275 22.508C15.275 22.645 15.163 22.756 15.027 22.756H4.46502C4.32802 22.756 4.21702 22.645 4.21702 22.508V21.848C4.21702 21.711 4.32802 21.6 4.46502 21.6H15.027C15.163 21.6 15.275 21.711 15.275 21.847V22.508ZM15.275 19.132C15.275 19.268 15.163 19.379 15.027 19.379H4.46502C4.32802 19.379 4.21702 19.268 4.21702 19.132V18.471C4.21702 18.334 4.32802 18.223 4.46502 18.223H15.027C15.163 18.223 15.275 18.334 15.275 18.471V19.131V19.132ZM15.275 15.094V15.754C15.275 15.891 15.163 16.003 15.027 16.003H4.46502C4.32802 16.003 4.21702 15.891 4.21702 15.755V15.094C4.21702 14.958 4.32802 14.846 4.46502 14.846H15.027C15.163 14.846 15.275 14.958 15.275 15.094Z" fill="#DE1B50"/>
<path d="M4.21704 15.094V15.754C4.21704 15.891 4.32804 16.003 4.46504 16.003H15.027C15.163 16.003 15.275 15.891 15.275 15.755V15.094C15.275 14.958 15.163 14.846 15.027 14.846H4.46504C4.32804 14.846 4.21704 14.958 4.21704 15.094ZM15.027 18.223H4.46504C4.32804 18.223 4.21704 18.334 4.21704 18.471V19.131C4.21704 19.268 4.32804 19.379 4.46504 19.379H15.027C15.163 19.379 15.275 19.268 15.275 19.132V18.471C15.275 18.334 15.163 18.223 15.027 18.223ZM15.027 21.6H4.46504C4.32804 21.6 4.21704 21.711 4.21704 21.847V22.508C4.21704 22.645 4.32804 22.756 4.46504 22.756H15.027C15.163 22.756 15.275 22.645 15.275 22.508V21.848C15.275 21.711 15.163 21.6 15.027 21.6ZM10.103 24.976H4.46504C4.32804 24.976 4.21704 25.088 4.21704 25.224V25.885C4.21704 26.021 4.32804 26.133 4.46504 26.133H10.103C10.239 26.133 10.351 26.021 10.351 25.885V25.225C10.351 25.088 10.239 24.976 10.103 24.976Z" fill="white"/>
</svg>
