<svg width="25" height="25" viewBox="0 0 25 25" fill="none" xmlns="http://www.w3.org/2000/svg">
<g clip-path="url(#clip0)">
<path d="M18.3463 16.1369C19.5766 14.4569 20.3124 12.3934 20.3124 10.1564C20.3124 4.5564 15.7561 0.00012207 10.1562 0.00012207C4.55623 0.00012207 0 4.5564 0 10.1564C0 15.7563 4.55628 20.3126 10.1562 20.3126C12.3933 20.3126 14.457 19.5766 16.137 18.3464L22.7905 25L25 22.7905C25 22.7905 18.3463 16.1369 18.3463 16.1369ZM10.1562 17.1876C6.27897 17.1876 3.12501 14.0336 3.12501 10.1564C3.12501 6.2791 6.27897 3.12513 10.1562 3.12513C14.0335 3.12513 17.1874 6.2791 17.1874 10.1564C17.1874 14.0336 14.0334 17.1876 10.1562 17.1876Z" fill="#2FC5F7"/>
</g>
<defs>
<clipPath id="clip0">
<rect y="6.10352e-05" width="25" height="25" fill="white"/>
</clipPath>
</defs>
</svg>
