<svg width="271" height="271" viewBox="0 0 271 271" fill="none" xmlns="http://www.w3.org/2000/svg">
<g clip-path="url(#clip0)">
<path d="M97.1635 122.307C93.9052 120.653 90.3103 119.77 86.6565 119.726C84.0569 119.691 81.5017 120.402 79.2946 121.776C77.0875 123.15 75.3212 125.129 74.2056 127.478C74.1779 127.529 74.154 127.587 74.1285 127.642C72.8273 130.435 70.7472 132.793 68.1382 134.432C65.0217 136.39 61.1559 139.816 59.7007 145.274C59.7007 145.274 55.5695 156.553 67.266 162.563C67.266 162.563 65.7748 172.886 76.8207 178.785C87.8667 184.684 94.9299 175.443 94.9299 175.443C94.9299 175.443 111.241 183.444 120.016 169.676C120.016 169.676 124.295 163.584 121.661 156.033C120.116 151.825 119.999 147.227 121.327 142.947C121.51 142.389 121.711 141.832 121.931 141.284C122.531 139.82 122.746 138.226 122.555 136.655C122.364 135.084 121.773 133.589 120.839 132.311C117.963 128.413 112.873 123.839 104.878 124.01C102.205 124.09 99.5542 123.505 97.1635 122.307Z" fill="url(#paint0_linear)"/>
<path d="M91.3054 71.1891C95.2335 73.2867 100.118 71.8029 102.216 67.8749C104.314 63.9469 102.83 59.0621 98.9017 56.9644C94.9737 54.8667 90.0889 56.3506 87.9913 60.2786C85.8936 64.2066 87.3774 69.0914 91.3054 71.1891Z" fill="url(#paint1_linear)"/>
<path d="M55.5132 105.499C59.5286 107.643 64.5221 106.127 66.6664 102.111C68.8108 98.0958 67.2939 93.1023 63.2785 90.958C59.2631 88.8137 54.2696 90.3305 52.1253 94.3459C49.9809 98.3613 51.4978 103.355 55.5132 105.499Z" fill="url(#paint2_linear)"/>
<path d="M90.1216 213.765C94.399 216.05 99.7182 214.434 102.002 210.156C104.287 205.879 102.671 200.56 98.3935 198.276C94.1161 195.991 88.7969 197.607 86.5127 201.885C84.2285 206.162 85.8442 211.481 90.1216 213.765Z" fill="url(#paint3_linear)"/>
<path d="M86.4413 147.607C89.6678 149.33 93.6802 148.111 95.4032 144.885C97.1263 141.658 95.9075 137.646 92.681 135.923C89.4545 134.2 85.4421 135.419 83.719 138.645C81.996 141.872 83.2148 145.884 86.4413 147.607Z" fill="white"/>
<path d="M83.5801 167.026C86.0724 168.357 89.1718 167.415 90.5028 164.923C91.8337 162.43 90.8922 159.331 88.3999 158C85.9076 156.669 82.8083 157.611 81.4773 160.103C80.1464 162.595 81.0878 165.695 83.5801 167.026Z" fill="white"/>
<path d="M124.649 91.9137C129.831 94.681 136.276 92.7235 139.043 87.5414C141.81 82.3594 139.853 75.9151 134.671 73.1478C129.489 70.3804 123.044 72.3379 120.277 77.52C117.51 82.7021 119.467 89.1463 124.649 91.9137Z" fill="url(#paint4_linear)"/>
<path d="M84.7211 97.4942C87.0758 98.7517 90.0041 97.8622 91.2616 95.5074C92.5191 93.1527 91.6296 90.2244 89.2749 88.9669C86.9201 87.7094 83.9918 88.5989 82.7343 90.9536C81.4768 93.3084 82.3663 96.2367 84.7211 97.4942Z" fill="white"/>
<path d="M35.142 148.477C37.6125 149.797 40.6848 148.863 42.0041 146.393C43.3234 143.922 42.3902 140.85 39.9196 139.531C37.4491 138.211 34.3768 139.145 33.0575 141.615C31.7382 144.086 32.6714 147.158 35.142 148.477Z" fill="white"/>
<path d="M165.033 242.945C166.643 243.805 168.633 243.219 169.479 241.636C170.324 240.054 169.704 238.074 168.094 237.214C166.484 236.354 164.494 236.94 163.648 238.523C162.803 240.106 163.423 242.086 165.033 242.945Z" fill="url(#paint5_linear)"/>
<path d="M137.082 201.206C139.336 202.41 142.124 201.589 143.307 199.373C144.491 197.157 143.623 194.384 141.368 193.18C139.114 191.976 136.327 192.797 135.143 195.013C133.959 197.229 134.828 200.002 137.082 201.206Z" fill="url(#paint6_linear)"/>
<path d="M37.8977 166.664C36.6783 166.9 35.5211 167.387 34.499 168.092C33.01 169.159 31.928 170.701 31.4308 172.464C30.5018 175.592 30.0045 181.105 36.8799 183.349C41.7249 184.929 44.7541 182.215 46.5603 179.193C47.4562 177.681 47.8532 175.925 47.695 174.174C47.5367 172.424 46.8313 170.768 45.6787 169.441C44.7409 168.334 43.5276 167.495 42.1613 167.007C40.7951 166.52 39.3243 166.401 37.8977 166.664Z" fill="white"/>
<path d="M108.299 158.605C107.984 158.943 107.601 159.212 107.175 159.392C106.749 159.573 106.289 159.661 105.827 159.652C105.364 159.642 104.909 159.536 104.49 159.338C104.072 159.141 103.7 158.857 103.398 158.506C102.379 157.168 102.706 154.808 104.137 153.24C105.568 151.672 107.553 151.485 108.575 152.826C109.596 154.166 109.729 157.036 108.299 158.605Z" fill="white"/>
<path d="M102.047 123.836C102.984 123.971 103.93 124.029 104.876 124.009C108.022 123.914 111.137 124.649 113.908 126.14C113.971 123.318 114.546 120.532 115.605 117.916C118.585 110.525 125.383 99.6046 125.383 99.6046C125.383 99.6046 128.164 94.3976 133.357 92.5025L133.344 92.4959C131.372 93.2331 129.225 93.3645 127.178 92.8735C125.13 92.3824 123.276 91.2912 121.853 89.7396C122.035 91.444 121.769 94.5009 119.293 99.1376L109.097 118.23C109.097 118.23 107.041 122.704 102.047 123.836Z" fill="white"/>
<path d="M160.912 153.89C160.903 150.617 158.278 146.791 155.243 145.568C154.729 145.361 154.199 145.2 153.658 145.085C151.721 144.707 149.713 144.998 147.963 145.912C147.963 145.912 141.273 149.136 134.59 149.289C134.114 149.292 133.645 149.406 133.221 149.622C132.797 149.838 132.43 150.15 132.147 150.533C131.865 150.916 131.676 151.36 131.595 151.829C131.515 152.298 131.544 152.779 131.682 153.235C131.695 153.271 131.709 153.309 131.721 153.345C131.944 153.954 132.355 154.475 132.894 154.835C133.433 155.195 134.072 155.374 134.72 155.347C137.107 155.259 141.431 155.685 144.12 159.414C144.238 159.599 144.356 159.783 144.481 159.951L144.5 159.98L144.502 159.977C146.959 163.269 150.664 163.457 153.873 162.746C155.88 162.294 157.672 161.169 158.953 159.558C160.233 157.947 160.924 155.947 160.912 153.89Z" fill="url(#paint7_linear)"/>
<path d="M67.2659 162.563C64.7651 161.361 62.6298 159.514 61.0797 157.213C59.7204 159.129 58.0767 160.827 56.2053 162.247C52.782 164.882 49.0548 167.097 45.1035 168.844C45.3034 169.034 45.497 169.231 45.6798 169.442C46.7099 170.633 47.3848 172.09 47.6277 173.646C51.3724 170.415 59.4986 164.799 67.8024 168.11C67.2755 166.311 67.0935 164.429 67.2659 162.563Z" fill="white"/>
<path d="M74.2056 127.478C75.7392 124.248 78.4849 121.754 81.8465 120.537C79.5343 119.601 76.6491 117.695 73.3939 113.939C69.1417 109.039 67.346 105.006 66.6047 102.213C66.0757 103.173 65.3598 104.017 64.4994 104.695C63.6389 105.374 62.6512 105.873 61.5946 106.164C63.327 107.565 66.2177 110.576 69.0063 116.549C71.6688 122.252 71.7015 128.088 71.3197 131.789C72.4688 130.562 73.417 129.162 74.1291 127.639C74.1539 127.587 74.1796 127.532 74.2056 127.478Z" fill="white"/>
<path d="M129.587 32.0835C128.628 32.2692 127.717 32.6519 126.913 33.2075C125.742 34.0472 124.89 35.2603 124.499 36.6477C123.768 39.1094 123.376 43.45 128.788 45.2135C132.6 46.4564 134.985 44.3218 136.402 41.9443C137.107 40.7545 137.419 39.3729 137.295 37.9956C137.17 36.6182 136.615 35.315 135.708 34.271C134.971 33.4 134.016 32.739 132.942 32.3549C131.867 31.9708 130.71 31.8772 129.587 32.0835Z" fill="white"/>
<path d="M125.793 192.382C125.077 192.513 124.397 192.792 123.796 193.201C122.924 193.816 122.292 194.713 122.006 195.741C121.472 197.564 121.202 200.779 125.263 202.118C128.125 203.061 129.9 201.49 130.951 199.732C131.472 198.845 131.699 197.816 131.598 196.793C131.498 195.77 131.075 194.804 130.392 194.036C129.835 193.385 129.118 192.89 128.311 192.6C127.505 192.31 126.637 192.235 125.793 192.382Z" fill="url(#paint8_linear)"/>
<path d="M96.247 197.476C95.4181 193.909 94.5333 188.041 96.2584 183.635C97.1796 181.224 98.6045 179.038 100.438 177.222C98.5412 176.837 96.6937 176.241 94.9305 175.442C92.9842 177.765 90.3898 179.456 87.4785 180.297C88.7916 181.435 89.8604 182.827 90.6201 184.39C91.3797 185.952 91.8146 187.653 91.8984 189.388C92.0566 192.108 92.0739 194.835 91.95 197.557C93.3534 197.173 94.8303 197.145 96.247 197.476Z" fill="white"/>
<path d="M65.1374 163.738C65.1111 167.099 66.1116 175.4 75.851 180.601C84.7306 185.343 92.0118 181.444 95.4786 177.938C102.186 180.63 114.563 182.027 121.733 170.813C122.187 170.144 126.459 163.539 123.605 155.354C122.202 151.575 122.089 147.438 123.283 143.588C123.46 143.049 123.646 142.533 123.84 142.053C124.577 140.264 124.841 138.315 124.605 136.394C124.369 134.473 123.642 132.645 122.494 131.087C119.342 126.815 113.719 121.76 104.833 121.952C102.502 122.021 100.19 121.513 98.1023 120.474C94.5612 118.681 90.6569 117.721 86.688 117.669C83.6942 117.629 80.7519 118.45 78.2101 120.032C75.6683 121.614 73.6336 123.892 72.3473 126.596L72.2632 126.774C71.1322 129.209 69.3196 131.264 67.0448 132.69C63.7085 134.785 59.3937 138.56 57.7365 144.657C56.1827 149.01 55.8851 158.25 65.1374 163.738ZM69.2331 136.176C72.1818 134.327 74.531 131.663 75.9963 128.506L76.0658 128.359C77.0128 126.368 78.5113 124.69 80.3832 123.525C82.2552 122.359 84.4221 121.756 86.6269 121.785C89.9648 121.827 93.2488 122.633 96.2278 124.139C98.922 125.488 101.908 126.151 104.92 126.067C112.043 125.915 116.607 130.04 119.181 133.531C119.909 134.525 120.368 135.69 120.515 136.913C120.662 138.136 120.492 139.377 120.019 140.515C119.792 141.078 119.573 141.681 119.368 142.305C117.89 147.013 118.011 152.079 119.714 156.71C120.371 158.654 120.587 160.719 120.347 162.757C120.108 164.795 119.418 166.754 118.329 168.492C118.311 168.518 118.295 168.541 118.277 168.569C110.616 180.593 96.4327 173.886 95.836 173.596C95.4095 173.389 94.9248 173.335 94.463 173.442C94.0013 173.55 93.5906 173.813 93.2996 174.187C93.051 174.507 87.1072 181.946 77.7901 176.97C68.223 171.861 69.2569 163.21 69.3029 162.858C69.3635 162.439 69.2935 162.012 69.1024 161.634C68.9114 161.257 68.6086 160.947 68.2354 160.748L68.2063 160.732C68.1176 160.685 68.0304 160.638 67.9432 160.592C58.3823 155.486 61.4995 146.361 61.6347 145.98C61.6546 145.924 61.675 145.862 61.6911 145.802C62.9843 140.949 66.5068 137.888 69.2331 136.176Z" fill="white"/>
<path d="M99.8714 55.1483C98.1054 54.2052 96.0994 53.807 94.1071 54.004C92.1148 54.201 90.2256 54.9844 88.6785 56.2551C87.1314 57.5258 85.9959 59.2267 85.4155 61.1428C84.8351 63.0588 84.8359 65.104 85.4179 67.0196C85.9998 68.9352 87.1367 70.6352 88.6849 71.9046C90.233 73.174 92.1228 73.9559 94.1153 74.1513C96.1077 74.3467 98.1134 73.9468 99.8786 73.0023C101.644 72.0578 103.089 70.611 104.032 68.845C105.294 66.4764 105.565 63.704 104.785 61.1361C104.004 58.5683 102.237 56.4149 99.8714 55.1483ZM92.2749 69.3735C91.2273 68.814 90.3691 67.9565 89.8088 66.9093C89.2486 65.8622 89.0115 64.6724 89.1274 63.4904C89.2434 62.3085 89.7072 61.1875 90.4603 60.2691C91.2134 59.3508 92.2218 58.6764 93.3582 58.3313C94.4945 57.9861 95.7077 57.9856 96.8443 58.3299C97.981 58.6742 98.9899 59.3479 99.7437 60.2656C100.497 61.1834 100.962 62.3041 101.079 63.4859C101.196 64.6678 100.96 65.8577 100.4 66.9053C99.6486 68.3087 98.3711 69.3567 96.8479 69.8194C95.3246 70.2821 93.68 70.1218 92.2749 69.3735Z" fill="white"/>
<path d="M68.4824 103.081C69.4422 101.284 69.8474 99.2424 69.647 97.2149C69.4465 95.1874 68.6493 93.2649 67.3562 91.6905C66.0631 90.1161 64.3322 88.9604 62.3823 88.3698C60.4325 87.7791 58.3512 87.7799 56.4018 88.372C54.4524 88.9642 52.7223 90.1211 51.4304 91.6965C50.1385 93.2719 49.3428 95.1951 49.1438 97.2227C48.9449 99.2504 49.3517 101.291 50.3128 103.088C51.2739 104.884 52.7461 106.355 54.5433 107.315C56.9538 108.599 59.7752 108.874 62.3884 108.08C65.0016 107.287 67.1932 105.489 68.4824 103.081ZM53.9418 95.316C54.5179 94.2371 55.401 93.3534 56.4794 92.7765C57.5578 92.1996 58.783 91.9554 60.0002 92.0748C61.2174 92.1943 62.3718 92.672 63.3175 93.4475C64.2631 94.2231 64.9576 95.2616 65.313 96.4318C65.6684 97.6021 65.6688 98.8514 65.3141 100.022C64.9595 101.192 64.2657 102.231 63.3206 103.008C62.3754 103.784 61.2213 104.262 60.0042 104.382C58.7871 104.503 57.5617 104.259 56.483 103.683C55.0379 102.909 53.9588 101.593 53.4824 100.025C53.006 98.4563 53.1712 96.7629 53.9418 95.316Z" fill="white"/>
<path d="M89.1517 215.581C91.0427 216.591 93.1907 217.018 95.324 216.807C97.4573 216.596 99.4802 215.757 101.137 214.396C102.793 213.036 104.009 211.214 104.631 209.163C105.252 207.111 105.251 204.921 104.628 202.87C104.005 200.819 102.788 198.999 101.13 197.639C99.4728 196.28 97.4493 195.443 95.3158 195.233C93.1824 195.024 91.0347 195.452 89.1445 196.463C87.2543 197.475 85.7064 199.024 84.6966 200.915C83.3458 203.451 83.0563 206.42 83.8915 209.169C84.7267 211.919 86.6184 214.225 89.1517 215.581ZM97.4236 200.092C98.5962 200.718 99.5568 201.678 100.184 202.85C100.811 204.022 101.076 205.354 100.947 206.677C100.817 208 100.298 209.254 99.4547 210.282C98.6117 211.31 97.4829 212.065 96.211 212.451C94.9391 212.838 93.5811 212.838 92.3089 212.453C91.0367 212.067 89.9073 211.313 89.0636 210.286C88.2199 209.259 87.6997 208.005 87.5689 206.682C87.4382 205.359 87.7026 204.027 88.3288 202.854C89.17 201.283 90.5999 200.11 92.305 199.592C94.01 199.074 95.8508 199.254 97.4236 200.092Z" fill="white"/>
<path d="M123.679 93.7303C125.894 94.9132 128.41 95.4127 130.909 95.1656C133.408 94.9185 135.778 93.9359 137.718 92.3422C139.659 90.7484 141.083 88.615 141.811 86.2117C142.539 83.8084 142.538 81.2432 141.808 78.8405C141.078 76.4378 139.652 74.3055 137.711 72.7132C135.769 71.1209 133.399 70.1401 130.899 69.8949C128.4 69.6497 125.885 70.1511 123.67 71.3357C121.456 72.5203 119.643 74.3348 118.46 76.5499C116.878 79.5209 116.539 82.9984 117.517 86.2192C118.495 89.4401 120.711 92.1413 123.679 93.7303ZM133.701 74.9639C135.197 75.7631 136.423 76.9883 137.224 78.4844C138.024 79.9805 138.363 81.6804 138.197 83.369C138.032 85.0577 137.369 86.6593 136.293 87.9712C135.217 89.2832 133.776 90.2467 132.153 90.7398C130.529 91.2329 128.796 91.2335 127.172 90.7415C125.548 90.2495 124.107 89.287 123.03 87.9758C121.953 86.6645 121.289 85.0634 121.122 83.3748C120.955 81.6863 121.293 79.9862 122.092 78.4896C123.166 76.4846 124.991 74.9874 127.168 74.3264C129.344 73.6654 131.693 73.8947 133.701 74.9639Z" fill="white"/>
<path d="M142.417 160.576C142.539 160.765 142.662 160.952 142.789 161.128C142.833 161.193 142.88 161.255 142.931 161.315C145.483 164.652 149.418 165.842 154.317 164.757C156.777 164.192 158.974 162.809 160.546 160.834C162.118 158.859 162.973 156.409 162.971 153.884C162.959 149.787 159.846 145.203 156.012 143.658C155.388 143.406 154.743 143.21 154.084 143.071C151.702 142.598 149.231 142.945 147.071 144.056C147.007 144.089 140.682 147.09 134.542 147.23C133.726 147.25 132.926 147.461 132.206 147.845C131.486 148.229 130.866 148.776 130.395 149.442C129.94 150.079 129.643 150.815 129.528 151.589C129.413 152.363 129.484 153.154 129.734 153.895L129.784 154.038C130.206 155.225 131.056 156.211 132.168 156.803C132.975 157.233 133.881 157.441 134.794 157.406C136.727 157.334 140.279 157.653 142.417 160.576ZM133.658 152.647L133.637 152.584C133.594 152.455 133.582 152.317 133.604 152.182C133.626 152.047 133.68 151.92 133.762 151.811C133.861 151.67 133.992 151.555 134.144 151.474C134.296 151.393 134.465 151.349 134.637 151.345C141.685 151.183 148.568 147.904 148.894 147.75C150.217 147.022 151.757 146.791 153.236 147.099C154.797 147.441 156.199 148.295 157.218 149.527C158.237 150.759 158.814 152.296 158.857 153.894C158.861 155.48 158.326 157.021 157.34 158.264C156.354 159.507 154.976 160.378 153.43 160.736C148.462 161.836 146.527 159.261 145.793 158.21C142.609 153.642 137.413 153.188 134.647 153.289C134.436 153.3 134.226 153.244 134.048 153.129C133.871 153.013 133.734 152.844 133.658 152.647Z" fill="white"/>
</g>
<defs>
<linearGradient id="paint0_linear" x1="110.784" y1="117.098" x2="68.2483" y2="198.413" gradientUnits="userSpaceOnUse">
<stop stop-color="#FF6185"/>
<stop offset="1" stop-color="#E2407A"/>
</linearGradient>
<linearGradient id="paint1_linear" x1="55.9576" y1="1927.18" x2="-1423.71" y2="4810.73" gradientUnits="userSpaceOnUse">
<stop stop-color="#FF6185"/>
<stop offset="1" stop-color="#E2407A"/>
</linearGradient>
<linearGradient id="paint2_linear" x1="-827.482" y1="2663.55" x2="-2019.49" y2="4942.32" gradientUnits="userSpaceOnUse">
<stop stop-color="#FF6185"/>
<stop offset="1" stop-color="#E2407A"/>
</linearGradient>
<linearGradient id="paint3_linear" x1="1288.22" y1="4057.42" x2="18.4581" y2="6484.83" gradientUnits="userSpaceOnUse">
<stop stop-color="#FF6185"/>
<stop offset="1" stop-color="#E2407A"/>
</linearGradient>
<linearGradient id="paint4_linear" x1="1560.8" y1="2765.47" x2="826.838" y2="4139.86" gradientUnits="userSpaceOnUse">
<stop stop-color="white"/>
<stop offset="1" stop-color="#E2407A"/>
</linearGradient>
<linearGradient id="paint5_linear" x1="1348.51" y1="2239.6" x2="983.35" y2="2923.39" gradientUnits="userSpaceOnUse">
<stop stop-color="#FF6185"/>
<stop offset="1" stop-color="#E2407A"/>
</linearGradient>
<linearGradient id="paint6_linear" x1="1877.22" y1="3041.41" x2="1365.88" y2="3998.93" gradientUnits="userSpaceOnUse">
<stop stop-color="white"/>
<stop offset="1" stop-color="#E2407A"/>
</linearGradient>
<linearGradient id="paint7_linear" x1="3688.73" y1="5469.54" x2="2325.23" y2="8058.27" gradientUnits="userSpaceOnUse">
<stop stop-color="#FF6185"/>
<stop offset="1" stop-color="#E2407A"/>
</linearGradient>
<linearGradient id="paint8_linear" x1="1049.4" y1="2795.53" x2="487.53" y2="3847.67" gradientUnits="userSpaceOnUse">
<stop stop-color="#FF6185"/>
<stop offset="1" stop-color="#E2407A"/>
</linearGradient>
<clipPath id="clip0">
<rect x="94.2125" width="200" height="200" transform="rotate(28.1033 94.2125 0)" fill="white"/>
</clipPath>
</defs>
</svg>
