<svg width="128" height="128" viewBox="0 0 128 128" fill="none" xmlns="http://www.w3.org/2000/svg">
<g clip-path="url(#clip0)">
<path d="M64 0C51.342 0 38.9682 3.75353 28.4435 10.7859C17.9188 17.8184 9.71572 27.8138 4.87171 39.5083C0.0276995 51.2027 -1.23971 64.071 1.22974 76.4858C3.69919 88.9006 9.7946 100.304 18.7452 109.255C27.6957 118.205 39.0994 124.301 51.5142 126.77C63.929 129.24 76.7973 127.972 88.4917 123.128C100.186 118.284 110.182 110.081 117.214 99.5565C124.246 89.0318 128 76.658 128 64C127.981 47.0318 121.233 30.7639 109.234 18.7656C97.2361 6.76732 80.9682 0.0185286 64 0V0ZM64 4C79.2326 3.9833 93.8972 9.78119 105 20.21L20.21 105C12.2174 96.4603 6.89508 85.7707 4.8977 74.246C2.90033 62.7213 4.31499 50.8641 8.96769 40.1328C13.6204 29.4016 21.3082 20.2642 31.0856 13.8446C40.863 7.42502 52.3035 4.0032 64 4ZM64 124C48.7674 124.017 34.1028 118.219 23 107.79L107.79 23C115.783 31.5397 121.105 42.2293 123.102 53.754C125.1 65.2787 123.685 77.1359 119.032 87.8672C114.38 98.5984 106.692 107.736 96.9144 114.155C87.137 120.575 75.6965 123.997 64 124Z" fill="white"/>
<path d="M94.05 57.83L95.2 57.6C96.5158 57.3362 97.7376 56.7265 98.7395 55.8336C99.7414 54.9407 100.487 53.7969 100.9 52.52C101.017 52.1387 101.017 51.7313 100.9 51.35C100.84 51.14 94.28 29.41 63.85 29.41C54.4006 29.3078 45.0951 31.7282 36.893 36.4216C28.691 41.115 21.8895 47.9115 17.19 56.11C16.9731 56.5823 16.9485 57.1205 17.1215 57.6107C17.2946 58.1008 17.6516 58.5043 18.117 58.7357C18.5824 58.9671 19.1196 59.0082 19.6148 58.8503C20.1101 58.6925 20.5244 58.3481 20.77 57.89C21.5148 56.499 22.3569 55.1624 23.29 53.89L25.77 55.27C35 60.41 50.37 69 64 69C82.32 69 91.82 60.2 94.05 57.83ZM63.87 33.41C66.9486 33.41 69.9581 34.3227 72.5181 36.0326C75.0782 37.7426 77.0738 40.1731 78.2529 43.017C79.4319 45.8609 79.7414 48.9905 79.1423 52.0102C78.5431 55.0299 77.0622 57.8043 74.8867 59.9826C72.7112 62.1609 69.9388 63.6454 66.9198 64.2484C63.9008 64.8514 60.7709 64.5459 57.9255 63.3705C55.0801 62.1951 52.647 60.2026 50.9337 57.6448C49.2205 55.0869 48.304 52.0786 48.3 49C48.2987 46.954 48.7004 44.9278 49.4821 43.037C50.2639 41.1463 51.4104 39.428 52.8562 37.9803C54.302 36.5327 56.0188 35.384 57.9086 34.5998C59.7983 33.8156 61.824 33.4113 63.87 33.41ZM96.87 51.84C96.6232 52.3089 96.2755 52.7172 95.8518 53.0354C95.4281 53.3535 94.9391 53.5737 94.42 53.68L92.61 54C92.1587 54.0908 91.7525 54.3345 91.46 54.69C91.4 54.76 86.91 60.03 77.46 62.99C79.3165 61.2073 80.8015 59.0745 81.8293 56.7148C82.8571 54.3551 83.4074 51.8152 83.4483 49.2417C83.4892 46.6682 83.0199 44.1121 82.0677 41.7209C81.1154 39.3297 79.6989 37.1508 77.9 35.31C91.49 39.53 95.91 49.25 96.87 51.84ZM25.81 50.71C32.1419 43.2469 40.5692 37.8575 50 35.24C46.4664 38.8 44.4431 43.5865 44.3518 48.6017C44.2605 53.6168 46.1083 58.4737 49.51 62.16C41.27 59.31 33.35 54.89 27.79 51.79L25.81 50.71Z" fill="white"/>
<path d="M18 45.71C18.3032 45.8903 18.6474 45.9901 19 46C19.3473 45.9962 19.6877 45.9019 19.9875 45.7266C20.2873 45.5512 20.5364 45.3008 20.71 45C20.83 44.8 33.28 25 63.91 24.37C75.0118 24.2539 85.8406 27.8119 94.71 34.49C95.1158 34.8321 95.6409 34.999 96.1697 34.954C96.4316 34.9318 96.6865 34.8581 96.9199 34.7373C97.1533 34.6165 97.3606 34.4509 97.53 34.25C97.6994 34.0491 97.8276 33.8168 97.9072 33.5663C97.9868 33.3158 98.0163 33.0522 97.994 32.7903C97.9718 32.5284 97.8981 32.2735 97.7773 32.0401C97.6565 31.8067 97.4909 31.5994 97.29 31.43C87.6941 24.0896 75.8998 20.2063 63.82 20.41C30.91 21.12 17.82 42.07 17.29 42.96C17.155 43.1869 17.0662 43.4383 17.0288 43.6997C16.9914 43.961 17.0061 44.2273 17.0721 44.4829C17.1381 44.7386 17.2541 44.9786 17.4134 45.1892C17.5726 45.3999 17.772 45.5768 18 45.71Z" fill="white"/>
<path d="M116.2 99.24L115.82 98.45C115.1 97.0033 114.353 95.6333 113.58 94.34C108.58 85.92 102.58 81 97.42 81.28C93.7406 81.4082 90.2478 82.9311 87.65 85.54C86.35 82.34 83.91 77.92 79.65 75.37C76.12 73.25 72.04 72.82 67.51 74.08C66.1275 74.4567 64.8367 75.1123 63.7171 76.0066C62.5976 76.9009 61.6729 78.0149 61 79.28C58.55 83.69 58.75 89.82 59.38 94.28C56.7106 92.7497 53.5749 92.2449 50.56 92.86C41.2 94.7 40.62 103.23 40.06 111.48L39.93 113.33C39.8871 116.309 40.0307 119.289 40.36 122.25C40.4027 122.75 40.6321 123.216 41.0027 123.556C41.3732 123.895 41.8578 124.082 42.36 124.08H42.54C42.8021 124.057 43.0572 123.983 43.2906 123.862C43.524 123.74 43.7312 123.574 43.9003 123.373C44.0693 123.171 44.197 122.938 44.2759 122.687C44.3547 122.436 44.3833 122.172 44.36 121.91C44.0408 119.162 43.8972 116.396 43.93 113.63C43.93 113 44.01 112.38 44.06 111.76C44.65 103 45.28 97.99 51.34 96.76C56.58 95.76 59.92 99.54 60.71 100.57L67.15 126.21C67.2591 126.642 67.5092 127.025 67.8606 127.298C68.212 127.572 68.6447 127.72 69.09 127.72C69.2552 127.72 69.4197 127.7 69.58 127.66C70.0719 127.523 70.493 127.204 70.757 126.767C71.021 126.33 71.1079 125.809 71 125.31L64.46 99.31C64.46 99.19 61.07 87.56 64.46 81.31C65.67 88.66 69.13 101.51 74.63 103.38C76.3441 103.938 78.1586 104.117 79.9487 103.907C81.7389 103.696 83.4621 103.1 85 102.16C86.135 101.465 87.129 100.563 87.93 99.5L93.67 118C93.7379 118.263 93.8586 118.509 94.0247 118.724C94.1908 118.938 94.3989 119.117 94.6363 119.249C94.8737 119.381 95.1354 119.462 95.4055 119.49C95.6756 119.517 95.9484 119.489 96.2073 119.408C96.4662 119.326 96.7058 119.193 96.9116 119.015C97.1173 118.838 97.2847 118.621 97.4038 118.377C97.5229 118.133 97.5911 117.868 97.6042 117.596C97.6173 117.325 97.575 117.054 97.48 116.8L89.1 90C89.6904 89.1131 90.4081 88.3179 91.23 87.64C95 94.07 100.88 103 105 103C107.91 103 110.2 101 111.69 99.17C111.87 99.52 112.05 99.86 112.23 100.23L112.6 100.98C112.71 101.224 112.867 101.443 113.063 101.625C113.259 101.807 113.489 101.948 113.74 102.039C113.991 102.131 114.258 102.171 114.525 102.158C114.792 102.144 115.054 102.077 115.295 101.961C115.535 101.844 115.75 101.681 115.927 101.48C116.103 101.279 116.238 101.045 116.322 100.792C116.406 100.538 116.439 100.27 116.418 100.003C116.397 99.7369 116.323 99.4773 116.2 99.24ZM86 93.72C85.8881 94.7388 85.5454 95.7187 84.9978 96.5851C84.4502 97.4516 83.7122 98.1817 82.84 98.72C81.806 99.329 80.655 99.7124 79.4624 99.8451C78.2697 99.9778 77.0625 99.8568 75.92 99.49C72.58 98.35 68.63 84.68 68.05 78.09L68.61 77.9C70.0867 77.4051 71.651 77.2259 73.2014 77.374C74.7517 77.5222 76.2537 77.9944 77.61 78.76C83.13 82.1 85 90.15 85 90.23C85 90.31 85 90.23 85 90.23C85 90.23 85 90.31 85 90.35L86 93.59C85.988 93.6325 85.988 93.6775 86 93.72ZM105 99C103.42 98.7 98.8 92.72 94.71 85.79C95.6404 85.4958 96.6052 85.3243 97.58 85.28C100.39 85.11 105 88.28 109.46 95.36C108.56 96.83 106.8 99 105.05 99H105Z" fill="white"/>
<path d="M59 120.52C57.2111 120.486 55.4282 120.302 53.67 119.97C46.6 118.79 47.36 101.97 48.01 94.82C48.0336 94.5574 48.1088 94.3019 48.2311 94.0683C48.3535 93.8347 48.5206 93.6275 48.7231 93.4585C48.9255 93.2895 49.1592 93.162 49.4109 93.0834C49.6626 93.0047 49.9274 92.9764 50.19 93C50.4526 93.0236 50.7081 93.0988 50.9417 93.2211C51.1753 93.3435 51.3825 93.5106 51.5515 93.7131C51.7205 93.9155 51.848 94.1492 51.9266 94.4009C52.0053 94.6526 52.0336 94.9174 52.01 95.18C51.07 105.54 52.21 115.67 54.35 116.03C59.35 116.86 62.95 116.86 64.21 114.16C64.3083 113.904 64.4581 113.671 64.6501 113.476C64.8422 113.28 65.0723 113.126 65.3263 113.023C65.5803 112.921 65.8528 112.871 66.1267 112.878C66.4007 112.885 66.6703 112.948 66.9189 113.063C67.1675 113.179 67.3897 113.344 67.5717 113.549C67.7538 113.753 67.8918 113.993 67.9773 114.254C68.0627 114.514 68.0937 114.789 68.0684 115.062C68.0431 115.335 67.9619 115.6 67.83 115.84C66.06 119.62 62.39 120.52 59 120.52Z" fill="white"/>
</g>
<defs>
<clipPath id="clip0">
<rect width="128" height="128" fill="white"/>
</clipPath>
</defs>
</svg>
