<svg width="128" height="128" viewBox="0 0 128 128" fill="none" xmlns="http://www.w3.org/2000/svg">
<g clip-path="url(#clip0)">
<path d="M54 77C53.4696 77 52.9609 77.2107 52.5858 77.5858C52.2107 77.9609 52 78.4696 52 79V102C52 102.53 52.2107 103.039 52.5858 103.414C52.9609 103.789 53.4696 104 54 104C54.5304 104 55.0391 103.789 55.4142 103.414C55.7893 103.039 56 102.53 56 102V79C56 78.4696 55.7893 77.9609 55.4142 77.5858C55.0391 77.2107 54.5304 77 54 77Z" fill="white"/>
<path d="M74 77C73.4696 77 72.9609 77.2107 72.5858 77.5858C72.2107 77.9609 72 78.4696 72 79V102C72 102.53 72.2107 103.039 72.5858 103.414C72.9609 103.789 73.4696 104 74 104C74.5304 104 75.0391 103.789 75.4142 103.414C75.7893 103.039 76 102.53 76 102V79C76 78.4696 75.7893 77.9609 75.4142 77.5858C75.0391 77.2107 74.5304 77 74 77Z" fill="white"/>
<path d="M74 64.2C76.0536 62.2823 77.4827 59.7911 78.1014 57.0503C78.7201 54.3096 78.4998 51.446 77.4691 48.8321C76.4384 46.2182 74.6451 43.9749 72.3223 42.394C69.9995 40.8131 67.2548 39.9676 64.445 39.9676C61.6352 39.9676 58.8905 40.8131 56.5677 42.394C54.2449 43.9749 52.4516 46.2182 51.4209 48.8321C50.3902 51.446 50.1699 54.3096 50.7886 57.0503C51.4073 59.7911 52.8364 62.2823 54.89 64.2C49.48 65.23 44 70 44 76V102C44 102.53 44.2107 103.039 44.5858 103.414C44.9609 103.789 45.4696 104 46 104C46.5304 104 47.0391 103.789 47.4142 103.414C47.7893 103.039 48 102.53 48 102V76C48 72.11 52.63 68 57 68H72C74.0881 68.1041 76.063 68.9803 77.5414 70.4586C79.0197 71.937 79.896 73.9119 80 76V102C80 102.53 80.2107 103.039 80.5858 103.414C80.9609 103.789 81.4696 104 82 104C82.5304 104 83.0391 103.789 83.4142 103.414C83.7893 103.039 84 102.53 84 102V76C83.9241 73.1889 82.892 70.4878 81.0739 68.3425C79.2558 66.1971 76.7605 64.7359 74 64.2ZM54.46 54C54.46 52.0222 55.0465 50.0888 56.1453 48.4443C57.2441 46.7998 58.8059 45.5181 60.6332 44.7612C62.4604 44.0043 64.4711 43.8063 66.4109 44.1922C68.3507 44.578 70.1325 45.5304 71.5311 46.9289C72.9296 48.3275 73.882 50.1093 74.2679 52.0491C74.6537 53.9889 74.4557 55.9996 73.6988 57.8268C72.9419 59.6541 71.6602 61.2159 70.0157 62.3147C68.3712 63.4135 66.4378 64 64.46 64C61.8078 64 59.2643 62.9464 57.3889 61.0711C55.5136 59.1957 54.46 56.6522 54.46 54Z" fill="white"/>
<path d="M101 75C100.47 75 99.9609 75.2107 99.5858 75.5858C99.2107 75.9609 99 76.4696 99 77V101C99 101.53 99.2107 102.039 99.5858 102.414C99.9609 102.789 100.47 103 101 103C101.53 103 102.039 102.789 102.414 102.414C102.789 102.039 103 101.53 103 101V77C103 76.4696 102.789 75.9609 102.414 75.5858C102.039 75.2107 101.53 75 101 75Z" fill="white"/>
<path d="M101.93 65.05C103.522 63.1202 104.409 60.7053 104.444 58.2039C104.479 55.7024 103.66 53.2637 102.122 51.2901C100.585 49.3166 98.4207 47.926 95.9867 47.3479C93.5527 46.7697 90.9944 47.0385 88.7337 48.1099C86.473 49.1813 84.645 50.9914 83.5514 53.2414C82.4578 55.4914 82.1637 58.047 82.7179 60.4866C83.272 62.9262 84.6412 65.104 86.5995 66.6608C88.5578 68.2176 90.9883 69.0603 93.49 69.05H93.83L94 69H101C102.579 69.0381 104.083 69.6824 105.201 70.7995C106.318 71.9166 106.962 73.4207 107 75V95C107 95.5304 107.211 96.0391 107.586 96.4142C107.961 96.7893 108.47 97 109 97C109.53 97 110.039 96.7893 110.414 96.4142C110.789 96.0391 111 95.5304 111 95V75C110.965 72.5197 110.023 70.138 108.352 68.3047C106.681 66.4715 104.397 65.3137 101.93 65.05ZM86.49 58C86.49 56.6155 86.9005 55.2621 87.6697 54.111C88.4389 52.9599 89.5321 52.0627 90.8112 51.5328C92.0903 51.003 93.4978 50.8644 94.8556 51.1345C96.2135 51.4046 97.4608 52.0713 98.4398 53.0502C99.4187 54.0292 100.085 55.2765 100.356 56.6344C100.626 57.9922 100.487 59.3997 99.9572 60.6788C99.4273 61.9579 98.5301 63.0511 97.379 63.8203C96.2279 64.5895 94.8745 65 93.49 65C91.6335 65 89.853 64.2625 88.5403 62.9497C87.2275 61.637 86.49 59.8565 86.49 58Z" fill="white"/>
<path d="M44 42C41.8244 42 39.6977 41.3549 37.8887 40.1462C36.0798 38.9375 34.6699 37.2195 33.8373 35.2095C33.0048 33.1995 32.7869 30.9878 33.2114 28.854C33.6358 26.7202 34.6834 24.7602 36.2218 23.2218C37.7602 21.6835 39.7202 20.6358 41.854 20.2114C43.9878 19.7869 46.1995 20.0048 48.2095 20.8373C50.2195 21.6699 51.9375 23.0798 53.1462 24.8887C54.3549 26.6977 55 28.8244 55 31C55 33.9174 53.8411 36.7153 51.7782 38.7782C49.7153 40.8411 46.9174 42 44 42ZM44 24C42.6155 24 41.2622 24.4105 40.111 25.1797C38.9599 25.9489 38.0627 27.0421 37.5328 28.3212C37.003 29.6003 36.8644 31.0078 37.1345 32.3656C37.4046 33.7235 38.0713 34.9708 39.0503 35.9497C40.0292 36.9287 41.2765 37.5954 42.6344 37.8655C43.9922 38.1356 45.3997 37.997 46.6788 37.4672C47.9579 36.9373 49.0511 36.0401 49.8203 34.889C50.5895 33.7378 51 32.3845 51 31C51 29.1435 50.2625 27.363 48.9497 26.0503C47.637 24.7375 45.8565 24 44 24Z" fill="white"/>
<path d="M84 42C81.8244 42 79.6977 41.3549 77.8887 40.1462C76.0798 38.9375 74.6699 37.2195 73.8373 35.2095C73.0048 33.1995 72.7869 30.9878 73.2114 28.854C73.6358 26.7202 74.6834 24.7602 76.2218 23.2218C77.7602 21.6835 79.7202 20.6358 81.854 20.2114C83.9878 19.7869 86.1995 20.0048 88.2095 20.8373C90.2195 21.6699 91.9375 23.0798 93.1462 24.8887C94.3549 26.6977 95 28.8244 95 31C95 33.9174 93.8411 36.7153 91.7782 38.7782C89.7153 40.8411 86.9174 42 84 42ZM84 24C82.6155 24 81.2622 24.4105 80.111 25.1797C78.9599 25.9489 78.0627 27.0421 77.5328 28.3212C77.003 29.6003 76.8644 31.0078 77.1345 32.3656C77.4046 33.7235 78.0713 34.9708 79.0503 35.9497C80.0292 36.9287 81.2765 37.5954 82.6344 37.8655C83.9922 38.1356 85.3997 37.997 86.6788 37.4672C87.9579 36.9373 89.0511 36.0401 89.8203 34.889C90.5895 33.7378 91 32.3845 91 31C91 29.1435 90.2625 27.363 88.9497 26.0503C87.637 24.7375 85.8565 24 84 24Z" fill="white"/>
<path d="M64 0C51.342 0 38.9682 3.75353 28.4435 10.7859C17.9188 17.8184 9.71572 27.8138 4.87171 39.5083C0.0277014 51.2027 -1.23971 64.071 1.22974 76.4858C3.6992 88.9006 9.79461 100.304 18.7452 109.255C27.6957 118.205 39.0994 124.301 51.5142 126.77C63.929 129.24 76.7973 127.972 88.4917 123.128C100.186 118.284 110.182 110.081 117.214 99.5565C124.246 89.0318 128 76.658 128 64C127.981 47.0318 121.233 30.7639 109.234 18.7656C97.236 6.76732 80.9682 0.0185286 64 0V0ZM64 4C79.2326 3.9833 93.8972 9.78119 105 20.21L20.21 105C12.2174 96.4603 6.89508 85.7707 4.8977 74.246C2.90033 62.7213 4.31499 50.8641 8.96769 40.1328C13.6204 29.4016 21.3082 20.2642 31.0856 13.8446C40.863 7.42502 52.3035 4.0032 64 4ZM64 124C48.7674 124.017 34.1028 118.219 23 107.79L107.79 23C115.783 31.5397 121.105 42.2293 123.102 53.754C125.1 65.2787 123.685 77.1359 119.032 87.8672C114.38 98.5984 106.692 107.736 96.9144 114.155C87.137 120.575 75.6965 123.997 64 124Z" fill="white"/>
<path d="M26.49 75C25.9596 75 25.4509 75.2107 25.0758 75.5858C24.7007 75.9609 24.49 76.4696 24.49 77V101C24.49 101.53 24.7007 102.039 25.0758 102.414C25.4509 102.789 25.9596 103 26.49 103C27.0204 103 27.5291 102.789 27.9042 102.414C28.2793 102.039 28.49 101.53 28.49 101V77C28.49 76.4696 28.2793 75.9609 27.9042 75.5858C27.5291 75.2107 27.0204 75 26.49 75Z" fill="white"/>
<path d="M34 47C31.9186 47.0104 29.8829 47.6112 28.1293 48.7325C26.3758 49.8538 24.9763 51.4496 24.0935 53.3345C23.2107 55.2194 22.8809 57.3161 23.1422 59.3811C23.4036 61.446 24.2454 63.3944 25.57 65C23.0932 65.2625 20.7994 66.4264 19.1251 68.2703C17.4508 70.1143 16.5129 72.5095 16.49 75V95C16.49 95.5304 16.7007 96.0391 17.0758 96.4142C17.4509 96.7893 17.9596 97 18.49 97C19.0204 97 19.5291 96.7893 19.9042 96.4142C20.2793 96.0391 20.49 95.5304 20.49 95V75C20.5305 73.4215 21.1756 71.9188 22.2922 70.8022C23.4088 69.6856 24.9115 69.0405 26.49 69H33.49H33.66H34C36.9174 69 39.7153 67.8411 41.7782 65.7782C43.8411 63.7153 45 60.9174 45 58C45 55.0826 43.8411 52.2847 41.7782 50.2218C39.7153 48.1589 36.9174 47 34 47ZM34 65C32.6155 65 31.2622 64.5895 30.111 63.8203C28.9599 63.0511 28.0627 61.9579 27.5328 60.6788C27.003 59.3997 26.8644 57.9922 27.1345 56.6344C27.4046 55.2765 28.0713 54.0292 29.0503 53.0503C30.0292 52.0713 31.2765 51.4046 32.6344 51.1345C33.9922 50.8644 35.3997 51.003 36.6788 51.5328C37.9579 52.0627 39.0511 52.9599 39.8203 54.111C40.5895 55.2622 41 56.6155 41 58C41 59.8565 40.2625 61.637 38.9497 62.9497C37.637 64.2625 35.8565 65 34 65Z" fill="white"/>
</g>
<defs>
<clipPath id="clip0">
<rect width="128" height="128" fill="white"/>
</clipPath>
</defs>
</svg>
