<svg width="128" height="128" viewBox="0 0 128 128" fill="none" xmlns="http://www.w3.org/2000/svg">
<g clip-path="url(#clip0)">
<path d="M73.5218 58.1963C73.5153 58.1793 73.5085 58.1622 73.5015 58.1452C73.162 57.319 72.3618 56.7935 71.4718 56.7865C70.5783 56.7872 69.7828 57.3222 69.4445 58.149C69.4388 58.163 69.4333 58.177 69.4278 58.1912L64.1693 71.9983C63.8008 72.966 64.2865 74.0492 65.254 74.4177C66.222 74.7862 67.305 74.3005 67.6735 73.3327L68.5233 71.1018H74.3835L75.2235 73.3275C75.507 74.0782 76.2203 74.541 76.9783 74.541C78.2795 74.541 79.197 73.2353 78.7323 72.0035L73.5218 58.1963ZM69.952 67.352L71.4675 63.3732L72.969 67.352H69.952Z" fill="white"/>
<path d="M40.983 60.677C42.8875 60.1032 44.6663 61.5005 44.7223 61.5452C45.5148 62.202 46.6903 62.0972 47.3538 61.3077C48.02 60.5152 47.9175 59.3325 47.125 58.666C46.9908 58.553 43.791 55.9147 39.9015 57.0862C35.6905 58.3547 34.9518 63.5192 38.2853 65.6927C38.784 66.0175 42.1435 67.3152 42.7345 67.5332C43.1908 67.7015 44.6653 68.3262 44.4913 69.301C44.3605 70.0332 43.4555 70.7905 42.1675 70.7905C40.8103 70.7905 39.5053 70.2447 38.6768 69.3305C37.9815 68.5635 36.7958 68.5047 36.0283 69.2002C35.261 69.8955 35.2028 71.0812 35.898 71.8487C37.4483 73.5592 39.7335 74.5405 42.1675 74.5405C48.5353 74.5405 51.0595 66.607 44.0325 64.0147C42.3338 63.3882 40.7508 62.7062 40.2423 62.484C39.7125 62.0412 39.8558 61.0165 40.983 60.677Z" fill="white"/>
<path d="M91.7358 57.1257C90.868 56.561 89.7063 56.8062 89.1415 57.6742L86.274 62.0792L83.3733 57.6367C82.807 56.7695 81.645 56.526 80.7783 57.0917C79.9113 57.658 79.6673 58.8197 80.2335 59.6867L84.4003 66.068L84.384 72.661C84.3815 73.6965 85.2188 74.538 86.2543 74.5405H86.259C87.2923 74.5405 88.1313 73.704 88.134 72.6702L88.1503 66.071L92.2845 59.7202C92.8493 58.8522 92.6035 57.6907 91.7358 57.1257Z" fill="white"/>
<path d="M56.6265 74.5407C57.662 74.5407 58.5015 73.7015 58.5015 72.6657V60.5367H60.509C61.5445 60.5367 62.384 59.6972 62.384 58.6617C62.384 57.6262 61.5445 56.7867 60.509 56.7867H52.775C51.7395 56.7867 50.9 57.6262 50.9 58.6617C50.9 59.6972 51.7395 60.5367 52.775 60.5367H54.7513V72.6657C54.7515 73.7012 55.591 74.5407 56.6265 74.5407Z" fill="white"/>
<path d="M78.0297 82.744L75.639 91.131C72.301 79.8185 73.373 83.352 73.1382 82.659C72.426 80.5365 69.3362 80.7245 68.905 82.9637L66.4435 96.601C66.2595 97.62 66.9367 98.5952 67.9557 98.7792C68.974 98.963 69.95 98.2862 70.134 97.267L71.4265 90.1052L73.5665 97.3585C73.573 97.3807 73.58 97.4027 73.5872 97.4247C73.8877 98.3195 74.7215 98.9187 75.6645 98.9187H75.6757C76.6232 98.9137 77.4565 98.305 77.749 97.4037C77.756 97.3825 77.7625 97.3607 77.7687 97.339L79.8345 90.0927L81.2092 97.2862C81.4037 98.3032 82.3862 98.9705 83.4027 98.776C84.42 98.5817 85.0867 97.5995 84.8925 96.5825L82.281 82.9185C82.0825 81.944 81.2502 81.2242 80.2572 81.1682C79.2175 81.1092 78.303 81.7898 78.0297 82.744Z" fill="white"/>
<path d="M41.6395 98.9183C42.675 98.9183 43.5145 98.0788 43.5145 97.0433V83.0393C43.5145 82.0038 42.675 81.1643 41.6395 81.1643C40.604 81.1643 39.7645 82.0038 39.7645 83.0393V87.926H33.8235V83.0393C33.8235 82.0038 32.984 81.1643 31.9485 81.1643C30.913 81.1643 30.0735 82.0038 30.0735 83.0393V97.0433C30.0735 98.0788 30.913 98.9183 31.9485 98.9183C32.984 98.9183 33.8235 98.0788 33.8235 97.0433V91.676H39.7645V97.0433C39.7645 98.0788 40.6038 98.9183 41.6395 98.9183Z" fill="white"/>
<path d="M96.0515 85.042C97.087 85.042 97.9265 84.2025 97.9265 83.167C97.9265 82.1315 97.087 81.292 96.0515 81.292H90.2045C89.169 81.292 88.3295 82.1315 88.3295 83.167V97.0433C88.3295 98.0788 89.169 98.9183 90.2045 98.9183H96.0515C97.087 98.9183 97.9265 98.0788 97.9265 97.0433C97.9265 96.0078 97.087 95.1683 96.0515 95.1683H92.0795V91.98H95.6203C96.6558 91.98 97.4953 91.1405 97.4953 90.105C97.4953 89.0695 96.6558 88.23 95.6203 88.23H92.0795V85.042H96.0515Z" fill="white"/>
<path d="M46.6951 90.0413C46.6951 94.936 50.6773 98.9183 55.5721 98.9183C60.4668 98.9183 64.4491 94.936 64.4491 90.0413C64.4491 85.1465 60.4668 81.1643 55.5721 81.1643C50.6771 81.1643 46.6951 85.1463 46.6951 90.0413ZM55.5721 84.9143C58.3991 84.9143 60.6991 87.2143 60.6991 90.0413C60.6991 92.8685 58.3991 95.1683 55.5721 95.1683C52.7451 95.1683 50.4451 92.8683 50.4451 90.0413C50.4451 87.214 52.7451 84.9143 55.5721 84.9143Z" fill="white"/>
<path d="M10.0978 54.1377C11.7568 56.8737 14.9043 58.334 18.0803 57.8315V107.859H17.8293C14.069 107.859 11.01 110.918 11.01 114.678V121.181C11.01 124.941 14.0693 128 17.8293 128H110.171C113.931 128 116.99 124.941 116.99 121.181V114.678C116.99 110.918 113.931 107.859 110.171 107.859H109.92V57.8317C113.089 58.333 116.241 56.8785 117.903 54.1377L122.619 46.3602C124.873 42.643 123.683 37.7848 119.965 35.5308L107.689 28.0863C106.803 27.5492 105.65 27.832 105.113 28.7173C104.576 29.6025 104.859 30.7557 105.744 31.2927L118.021 38.7373C119.97 39.9193 120.594 42.4665 119.412 44.416L114.696 52.1935C113.514 54.1425 110.967 54.7668 109.017 53.5848L64.9723 26.876C64.3748 26.5138 63.6253 26.5138 63.028 26.876L37.2063 42.534C36.3208 43.071 36.0383 44.224 36.5753 45.1095C37.112 45.995 38.2653 46.2775 39.1508 45.7405L64 30.672L106.17 56.2438V107.859H21.8303V56.2438C23.9538 54.9563 30.5818 50.937 32.8203 49.5795C33.71 49.04 33.986 47.885 33.4513 47.004C32.9145 46.1185 31.7615 45.836 30.8758 46.373L18.9828 53.5848C17.0333 54.7668 14.4863 54.1425 13.304 52.1935L8.58753 44.4157C7.40553 42.4665 8.02978 39.919 9.97878 38.737C13.6315 36.522 59.498 8.70875 59.498 8.70875C62.2743 7.025 65.7243 7.025 68.5015 8.709L99.4705 27.4885C100.356 28.0255 101.509 27.7428 102.046 26.8575C102.583 25.972 102.301 24.819 101.415 24.282L70.4463 5.5025C66.4695 3.091 61.5295 3.091 57.554 5.5025L31.2335 21.4627V14.0445C33.7033 13.7673 35.63 11.6682 35.63 9.12575V4.952C35.6303 2.2215 33.4088 0 30.6783 0H11.9715C9.24078 0 7.01953 2.2215 7.01953 4.952V9.12575C7.01953 11.6682 8.94653 13.7673 11.4163 14.0445V33.48L8.03503 35.5303C4.31778 37.7845 3.12753 42.6425 5.38153 46.3597L10.0978 54.1377ZM113.24 114.678V121.181C113.24 122.873 111.863 124.25 110.171 124.25H17.8293C16.1368 124.25 14.76 122.873 14.76 121.181V114.678C14.76 112.986 16.137 111.609 17.8293 111.609H110.171C111.863 111.609 113.24 112.986 113.24 114.678ZM15.166 14.0778H27.4835V23.7367L15.166 31.2057V14.0778ZM10.7695 9.12575V4.952C10.7695 4.28925 11.3088 3.75 11.9715 3.75H30.6783C31.341 3.75 31.8803 4.28925 31.8803 4.952V9.12575C31.8803 9.7885 31.341 10.3278 30.6783 10.3278C25.237 10.3278 17.4025 10.3278 11.9715 10.3278C11.3085 10.3278 10.7695 9.7885 10.7695 9.12575Z" fill="white"/>
</g>
<defs>
<clipPath id="clip0">
<rect width="128" height="128" fill="white"/>
</clipPath>
</defs>
</svg>
