<svg width="128" height="128" viewBox="0 0 128 128" fill="none" xmlns="http://www.w3.org/2000/svg">
<g clip-path="url(#clip0)">
<path d="M64 0C51.342 0 38.9682 3.75353 28.4435 10.7859C17.9188 17.8184 9.71572 27.8138 4.87171 39.5083C0.0276995 51.2027 -1.23971 64.071 1.22974 76.4858C3.69919 88.9006 9.7946 100.304 18.7452 109.255C27.6957 118.205 39.0994 124.301 51.5142 126.77C63.929 129.24 76.7973 127.972 88.4917 123.128C100.186 118.284 110.182 110.081 117.214 99.5565C124.246 89.0318 128 76.658 128 64C127.981 47.0318 121.233 30.7639 109.234 18.7656C97.2361 6.76732 80.9682 0.0185286 64 0V0ZM64 4C79.2326 3.9833 93.8972 9.78119 105 20.21L20.21 105C12.2174 96.4603 6.89508 85.7707 4.8977 74.246C2.90033 62.7213 4.31499 50.8641 8.96769 40.1328C13.6204 29.4016 21.3082 20.2642 31.0856 13.8446C40.863 7.42502 52.3035 4.0032 64 4ZM64 124C48.7674 124.017 34.1028 118.219 23 107.79L107.79 23C115.783 31.5397 121.105 42.2293 123.102 53.754C125.1 65.2787 123.685 77.1359 119.032 87.8672C114.38 98.5984 106.692 107.736 96.9144 114.155C87.137 120.575 75.6965 123.997 64 124Z" fill="white"/>
<path d="M121 35.61C120.954 35.345 120.854 35.0921 120.708 34.8664C120.561 34.6408 120.371 34.447 120.147 34.2966C119.924 34.1463 119.673 34.0426 119.409 33.9916C119.145 33.9406 118.873 33.9435 118.61 34L98.36 38C98.2472 38.0276 98.1368 38.0644 98.03 38.11C97.4947 38.1605 96.9635 38.2474 96.44 38.37L91 40H90.29C89.53 40 88.7 39.39 86.72 37.89L85.55 37C82.854 35.1284 80.049 33.4187 77.15 31.88C75.4 30.88 73.74 29.96 72.8 29.34C69.56 27.18 63.73 27.34 60.94 28.26C57.2001 29.8605 53.7398 32.048 50.69 34.74C47.6974 34.938 44.7169 35.2885 41.76 35.79C34.05 37.34 30.83 36.66 30.83 36.66L20.05 34.19L11.88 30.19C11.6436 30.0744 11.3868 30.0066 11.1242 29.9903C10.8616 29.9739 10.5983 30.0095 10.3495 30.095C10.1006 30.1804 9.87101 30.314 9.67378 30.4882C9.47656 30.6623 9.31557 30.8736 9.2 31.11C9.08444 31.3464 9.01657 31.6032 9.00026 31.8658C8.98395 32.1284 9.01953 32.3917 9.10496 32.6405C9.19039 32.8894 9.324 33.119 9.49816 33.3162C9.67232 33.5134 9.88362 33.6744 10.12 33.79L17 37.16C13.12 51.51 6.29 76.61 5.66 78.5C5.52248 78.9151 5.48163 79.3561 5.54055 79.7894C5.59948 80.2226 5.75663 80.6367 6 81C7.53 83.5 13.81 84.81 17.42 85.36C17.5198 85.3698 17.6202 85.3698 17.72 85.36C18.0599 85.3607 18.3943 85.2747 18.6918 85.1103C18.9892 84.9458 19.2399 84.7082 19.42 84.42L21.64 80.87C21.8843 81.127 22.1485 81.3644 22.43 81.58C23.3725 82.2701 24.4864 82.6882 25.6502 82.7887C26.814 82.8893 27.9831 82.6683 29.03 82.15C29.1124 82.555 29.2364 82.9505 29.4 83.33C30.0292 84.7073 30.9719 85.9183 32.1526 86.8663C33.3333 87.8144 34.7193 88.4731 36.2 88.79C37.7763 89.1553 39.4276 89.0153 40.92 88.39C41.3318 89.9208 42.1631 91.3062 43.32 92.39C44.3586 93.5455 45.7055 94.3805 47.2024 94.7968C48.6993 95.2131 50.2839 95.1934 51.77 94.74C52.0499 95.4677 52.4833 96.1267 53.0407 96.6719C53.598 97.2172 54.2663 97.6361 55 97.9C55.9009 98.2104 56.8471 98.3692 57.8 98.37C59.9505 98.3051 62.0258 97.5632 63.73 96.25C64.1964 96.8952 64.81 97.4198 65.52 97.78C66.2979 98.1722 67.1589 98.3712 68.03 98.36C68.9094 98.3495 69.7811 98.1941 70.61 97.9C71.5184 97.5574 72.3486 97.0355 73.0512 96.3655C73.7539 95.6956 74.3146 94.8911 74.7 94C76.9681 94.2571 79.2591 93.7842 81.24 92.65C82.714 91.6179 83.7764 90.0987 84.24 88.36C85.4035 88.5842 86.6034 88.5317 87.7429 88.2069C88.8824 87.8821 89.9296 87.294 90.8 86.49C91.5505 85.8373 92.1489 85.0282 92.5532 84.1194C92.9574 83.2107 93.1577 82.2244 93.14 81.23C93.7705 81.1567 94.3931 81.0261 95 80.84C96.224 83.3993 98.3241 85.4356 100.92 86.58C102.73 87.4122 104.698 87.8453 106.69 87.85C108.326 87.8866 109.948 87.5444 111.43 86.85C119.82 82.66 121.26 71.13 115.84 51.62C114.15 45.52 111.18 42.11 108.07 40.23L119.39 38C119.655 37.9535 119.908 37.8541 120.134 37.7076C120.359 37.5611 120.553 37.3706 120.703 37.1474C120.854 36.9243 120.957 36.6731 121.008 36.409C121.059 36.1448 121.057 35.873 121 35.61ZM62.2 32.08C64.44 31.33 68.75 31.47 70.59 32.69C71.59 33.39 73.29 34.32 75.2 35.39C77.956 36.8472 80.6269 38.4598 83.2 40.22L84.32 41.06C86.72 42.89 88.18 43.99 90.32 43.99C90.73 43.99 100.38 44.11 102.72 54.26C105.26 65.26 104.96 74.73 103.95 76.19C103.623 76.6391 103.204 77.0138 102.721 77.2896C102.239 77.5653 101.703 77.7359 101.15 77.79C100.579 77.8369 100.005 77.7896 99.45 77.65C100.293 76.2089 100.652 74.535 100.472 72.875C100.291 71.215 99.5828 69.6567 98.45 68.43C96.7 66.69 73.05 46.43 69.54 43.77C65 40.38 61.4 42 58.77 43.71C56.84 44.99 53.83 49.62 53.06 51.17C52.51 52.01 49 54.46 46.39 54.38C45.8687 54.3816 45.3576 54.236 44.9153 53.96C44.4731 53.6841 44.1177 53.2889 43.89 52.82C43.89 52.38 44.89 51.02 45.61 50.03C46.4989 48.8637 47.3266 47.6521 48.09 46.4C48.9456 45.0945 49.6185 43.678 50.09 42.19C50.3393 41.3142 50.7799 40.5048 51.38 39.82C53.57 36.86 60 32.81 62.2 32.08ZM16.7 81.15C14.2811 80.7864 11.9249 80.0863 9.7 79.07C11.22 73.93 18.78 46.07 20.84 38.47L28.3 40.19C28 44.7 27.2 57.11 25.89 61.7C24.8357 65.2903 23.4982 68.7913 21.89 72.17C21.1896 73.1324 20.668 74.213 20.35 75.36C20.35 75.42 20.26 75.47 20.22 75.54L16.7 81.15ZM24.79 78.37C24.6116 78.2607 24.4581 78.1152 24.3392 77.943C24.2204 77.7708 24.1389 77.5756 24.1 77.37C24.081 76.6676 24.2613 75.9742 24.62 75.37C25.4892 75.5092 26.3455 75.7199 27.18 76C27.9084 76.3464 28.4847 76.9476 28.8 77.69C27.74 78.41 26 79.3 24.79 78.37ZM37.13 84.9C36.2358 84.7286 35.3952 84.3473 34.6771 83.7875C33.9591 83.2277 33.3843 82.5054 33 81.68C32.8031 80.9158 32.8031 80.1142 33 79.35L37.71 74.63C39.19 73.16 40.51 72.52 41.71 72.63C42.9857 72.9232 44.1306 73.6256 44.97 74.63C46.76 76.41 47.13 77.16 43.03 81.93L42.28 82.8C41.47 83.58 39.08 85.39 37.13 84.9ZM46.13 89.53C44.03 87.42 44.8 86.04 45.13 85.63L45.23 85.51C45.67 85.0167 46.1 84.5267 46.52 84.04C48.34 81.96 51.63 78.24 53.09 76.78C54.55 75.32 57.42 74.41 60.17 77.17C62.02 79.01 61.25 80.66 60.89 81.17L51.83 90.23C51.29 90.66 48.81 92.24 46.1 89.53H46.13ZM56.32 94.11C56.0247 93.9545 55.773 93.7275 55.5878 93.4498C55.4027 93.1721 55.29 92.8524 55.26 92.52L63.84 83.93C63.9749 83.7612 64.1461 83.6249 64.3408 83.5312C64.5356 83.4375 64.7489 83.3889 64.965 83.3889C65.1811 83.3889 65.3944 83.4375 65.5892 83.5312C65.7839 83.6249 65.9551 83.7612 66.09 83.93C67.69 85.52 66.97 86.93 66.74 87.24C65.8043 88.6291 64.7575 89.94 63.61 91.16C60 94.74 57.81 94.62 56.29 94.11H56.32ZM69.41 94.11C67.61 94.71 67.04 94.11 66.86 93.66V93.59C67.5676 92.8215 68.2352 92.0171 68.86 91.18L70.95 92.64C70.6218 93.3038 70.064 93.8261 69.38 94.11H69.41ZM90.65 77.17H90.56L75.49 64.92C75.0765 64.6725 74.5875 64.5826 74.113 64.6668C73.6385 64.7511 73.2104 65.0038 72.9074 65.3786C72.6044 65.7534 72.4469 66.225 72.464 66.7066C72.481 67.1882 72.6713 67.6475 73 68L89.06 81.1H89.12C89.1259 81.123 89.1259 81.147 89.12 81.17C89.1372 81.6374 89.0449 82.1024 88.8505 82.5278C88.656 82.9532 88.3648 83.3272 88 83.62C86.68 84.95 84.21 84.28 83.57 84.08L68.57 74.08C68.1295 73.7864 67.5906 73.6795 67.0713 73.7826C66.5521 73.8857 66.0949 74.1904 65.8 74.63C65.6536 74.8491 65.5518 75.095 65.5007 75.3535C65.4496 75.612 65.4501 75.8781 65.5021 76.1364C65.5541 76.3947 65.6567 76.6402 65.804 76.8588C65.9512 77.0774 66.1402 77.2647 66.36 77.41L80.51 86.84C80.3258 87.8121 79.7878 88.6814 79 89.28C77.53 90.28 74.73 90.01 73.8 89.83L70.8 87.76C71.1277 86.5848 71.1206 85.3414 70.7796 84.17C70.4386 82.9986 69.7773 81.9457 68.87 81.13C67.9365 80.1381 66.6677 79.5286 65.31 79.42C65.2088 77.5106 64.3655 75.7164 62.96 74.42C59.1 70.55 53.86 70.42 50.23 74.03C50.07 74.18 49.9 74.36 49.71 74.56C49.2334 73.558 48.5757 72.6528 47.77 71.89C46.3099 70.2485 44.3353 69.1519 42.17 68.78C39.67 68.47 37.17 69.51 34.82 71.89L31.77 74.89C30.987 73.6449 29.8066 72.7006 28.42 72.21C27.7934 71.9961 27.1558 71.8158 26.51 71.67C27.7671 68.7992 28.836 65.8496 29.71 62.84C31.11 57.96 31.93 45.84 32.21 40.84C35.6797 40.87 39.1417 40.5076 42.53 39.76C43.81 39.5 45.47 39.29 47.01 39.12C46.6787 39.7229 46.4138 40.3599 46.22 41.02C45.8507 42.2012 45.3189 43.3253 44.64 44.36C43.9403 45.5014 43.1827 46.6061 42.37 47.67C40.61 50.05 38.96 52.29 40.37 54.82C40.9764 55.9577 41.8954 56.8982 43.0187 57.5307C44.142 58.1633 45.4228 58.4614 46.71 58.39C51 58.25 55.7 54.83 56.6 53C57.5 51.17 60.09 47.62 60.99 47C63.17 45.55 64.72 45.14 67.12 46.94C70.39 49.43 94 69.63 95.6 71.26C96.1499 71.9332 96.4503 72.7757 96.4503 73.645C96.4503 74.5142 96.1499 75.3568 95.6 76.03C93.87 77.75 90.68 77.17 90.65 77.17ZM112 52.66C115.27 64.44 117.52 79.31 109.65 83.25C108.526 83.6892 107.324 83.8893 106.118 83.8377C104.913 83.786 103.732 83.4837 102.65 82.95C101.986 82.6437 101.361 82.2575 100.79 81.8C100.93 81.8 101.07 81.8 101.22 81.8C102.349 81.7198 103.447 81.4011 104.444 80.8651C105.44 80.329 106.311 79.5876 107 78.69C109.59 75.46 108.78 63.03 106.55 53.36C106.094 50.9787 105.109 48.7304 103.667 46.7813C102.226 44.8322 100.364 43.2323 98.22 42.1C100.67 41.71 108.82 41.32 112 52.66Z" fill="white"/>
</g>
<defs>
<clipPath id="clip0">
<rect width="128" height="128" fill="white"/>
</clipPath>
</defs>
</svg>
